<?xml version="1.0" encoding="utf-8"?>
<!-- Generator: Adobe Illustrator 23.0.4, SVG Export Plug-In . SVG Version: 6.00 Build 0)  -->
<svg version="1.1" id="Layer_1" xmlns="http://www.w3.org/2000/svg" xmlns:xlink="http://www.w3.org/1999/xlink" x="0px" y="0px"
	 viewBox="0 0 1060 250" style="enable-background:new 0 0 1060 250;" xml:space="preserve">
<style type="text/css">
	.st0{fill:#03A9F4;}
	.st1{fill:#FFC107;}
	.st2{fill:#FFFFFF;}
	.st3{fill:#263238;}
</style>
<g>
	<polygon class="st0" points="181.1,5 5,5 5,245 213.7,245 213.7,37.6 181.1,37.6 	"/>
	<polygon class="st1" points="181.1,5 181.1,5 181.1,5 	"/>
	<polygon class="st1" points="213.7,37.6 213.7,37.6 213.7,37.6 	"/>
	<polygon class="st1" points="181.1,5 181.1,5 181.1,37.6 213.7,37.6 213.7,37.6 	"/>
</g>
<rect x="49" y="44.5" class="st2" width="119" height="14.9"/>
<rect x="49" y="74.2" class="st2" width="81.8" height="14.9"/>
<rect x="49" y="104" class="st2" width="52.1" height="14.9"/>
<rect x="49" y="193.2" class="st2" width="119" height="14.9"/>
<rect x="86.2" y="163.4" class="st2" width="81.8" height="14.9"/>
<rect x="115.9" y="133.7" class="st2" width="52.1" height="14.9"/>
<g>
	<path class="st3" d="M284.4,187c-8.7-2.8-15.7-6.5-20.9-10.9l9.3-22.8c5,4.1,11,7.4,18,9.9c7,2.5,13.9,3.7,20.9,3.7
		c7.7,0,13.5-1.3,17.2-3.8c3.7-2.6,5.6-6,5.6-10.2c0-3.1-1.1-5.7-3.3-7.8c-2.2-2.1-5-3.7-8.4-5c-3.4-1.2-8.1-2.6-13.9-4.1
		c-9-2.4-16.3-4.7-22-7.1c-5.7-2.4-10.6-6.2-14.7-11.4c-4.1-5.2-6.1-12.2-6.1-20.9c0-7.6,1.9-14.5,5.6-20.7
		c3.7-6.2,9.3-11.1,16.7-14.7c7.5-3.6,16.6-5.4,27.3-5.4c7.5,0,14.9,1,22,3c7.2,2,13.5,4.9,18.8,8.6l-8.4,23
		c-10.9-6.9-21.8-10.3-32.6-10.3c-7.6,0-13.3,1.4-16.9,4.1c-3.6,2.7-5.5,6.4-5.5,10.8c0,4.5,2.1,7.8,6.3,10
		c4.2,2.2,10.6,4.3,19.3,6.4c9,2.4,16.3,4.7,22,7.1c5.7,2.4,10.6,6.1,14.7,11.2c4.1,5.1,6.1,12,6.1,20.8c0,7.5-1.9,14.3-5.6,20.5
		c-3.8,6.2-9.4,11.1-16.9,14.7c-7.5,3.6-16.7,5.4-27.4,5.4C302.1,191.2,293.1,189.8,284.4,187z"/>
	<path class="st3" d="M464,146.9h-68.5c1.2,6.2,4.1,11.2,8.7,14.8c4.6,3.6,10.3,5.4,17.2,5.4c4.7,0,8.9-0.8,12.5-2.3
		c3.6-1.6,7-4,10.2-7.4l14,16.8c-8.5,10.8-21,16.3-37.4,16.3c-10.2,0-19.2-2.2-27.1-6.6c-7.9-4.4-13.9-10.6-18.2-18.4
		c-4.3-7.9-6.4-16.8-6.4-26.7c0-9.8,2.1-18.7,6.3-26.6c4.2-7.9,10-14.1,17.3-18.5c7.3-4.4,15.6-6.6,24.6-6.6
		c8.9,0,16.9,2.1,24.1,6.4c7.2,4.2,12.8,10.3,16.9,18.2c4.1,7.9,6.1,17.1,6.1,27.6C464.5,139.5,464.4,142.1,464,146.9z M402.6,114.6
		c-4,3.7-6.5,8.9-7.4,15.3h44.6c-0.9-6.4-3.4-11.4-7.4-15.2c-4-3.8-9-5.7-14.8-5.7C411.7,109,406.7,110.8,402.6,114.6z"/>
	<path class="st3" d="M512.6,90.7c5.3-2.5,11.5-3.7,18.4-3.7v26.9c-2.9-0.2-4.9-0.4-5.9-0.4c-7.5,0-13.4,2.3-17.7,7
		c-4.3,4.7-6.4,11.7-6.4,21V189h-26.2V88.4h25.1v13.3C503,96.8,507.3,93.2,512.6,90.7z"/>
	<path class="st3" d="M638.5,88.4L600.3,189h-27.1l-38-100.6h27.1l25.1,68.4l25.9-68.4H638.5z"/>
	<path class="st3" d="M730.8,146.9h-68.5c1.2,6.2,4.1,11.2,8.7,14.8c4.6,3.6,10.3,5.4,17.2,5.4c4.7,0,8.9-0.8,12.5-2.3
		c3.6-1.6,7-4,10.2-7.4l14,16.8c-8.5,10.8-21,16.3-37.4,16.3c-10.2,0-19.2-2.2-27.1-6.6c-7.9-4.4-13.9-10.6-18.2-18.4
		c-4.3-7.9-6.4-16.8-6.4-26.7c0-9.8,2.1-18.7,6.3-26.6c4.2-7.9,10-14.1,17.3-18.5c7.3-4.4,15.6-6.6,24.6-6.6
		c8.9,0,16.9,2.1,24.1,6.4c7.2,4.2,12.8,10.3,16.9,18.2c4.1,7.9,6.1,17.1,6.1,27.6C731.3,139.5,731.1,142.1,730.8,146.9z
		 M669.4,114.6c-4,3.7-6.5,8.9-7.4,15.3h44.6c-0.9-6.4-3.4-11.4-7.4-15.2c-4-3.8-9-5.7-14.8-5.7C678.4,109,673.4,110.8,669.4,114.6z
		"/>
	<path class="st3" d="M824.2,98.1c6.9,7.5,10.3,18.6,10.3,33.3V189h-26.2v-53.1c0-8-1.6-13.9-4.7-17.9c-3.1-3.9-7.7-5.9-13.6-5.9
		c-6.6,0-11.9,2.3-15.8,6.8c-3.9,4.6-5.9,11.3-5.9,20.3V189H742V50.3h26.2v48.6c3.5-3.9,7.7-6.8,12.6-8.9c4.9-2.1,10.3-3.1,16.2-3.1
		C808.3,86.9,817.3,90.7,824.2,98.1z"/>
	<path class="st3" d="M940.8,88.4V189h-24.9v-12c-3.5,4.4-7.6,7.7-12.5,10c-4.8,2.3-10,3.5-15.6,3.5c-11.9,0-21.3-3.8-28.3-11.4
		c-7-7.6-10.4-18.9-10.4-33.8V88.4h26.2v52.5c0,16.2,6.1,24.3,18.3,24.3c6.3,0,11.3-2.3,15.1-6.8c3.8-4.5,5.7-11.3,5.7-20.3V88.4
		H940.8z"/>
	<path class="st3" d="M1032.9,93.4c6.9,4.3,12.3,10.3,16.2,18.1c3.9,7.8,5.9,16.9,5.9,27.2c0,10.3-2,19.4-5.9,27.2
		c-3.9,7.8-9.3,13.8-16.2,18.1c-6.9,4.3-14.6,6.4-23,6.4c-12.5,0-21.9-4.4-28.4-13.1V189h-25.1V50.3h26.2v48.8
		c6.6-8.1,15.7-12.2,27.3-12.2C1018.3,86.9,1026,89.1,1032.9,93.4z M1021.9,159c4.3-5,6.5-11.8,6.5-20.3c0-8.5-2.2-15.2-6.5-20.3
		c-4.3-5-9.8-7.6-16.6-7.6c-6.7,0-12.3,2.5-16.6,7.6c-4.3,5-6.5,11.8-6.5,20.3c0,8.5,2.2,15.2,6.5,20.3c4.3,5,9.8,7.6,16.6,7.6
		C1012.1,166.6,1017.6,164,1021.9,159z"/>
</g>
</svg>
